<svg width="16" height="16" viewBox="0 0 16 16" fill="none" xmlns="http://www.w3.org/2000/svg">
<path d="M4.56217 11.4374C4.68717 11.5624 4.83301 11.6249 4.99967 11.6249C5.16634 11.6249 5.31217 11.5624 5.43717 11.4374L7.99967 8.87492L10.583 11.4583C10.6941 11.5694 10.8366 11.6213 11.0105 11.6141C11.1838 11.6074 11.3261 11.5485 11.4372 11.4374C11.5622 11.3124 11.6247 11.1666 11.6247 10.9999C11.6247 10.8333 11.5622 10.6874 11.4372 10.5624L8.87467 7.99992L11.458 5.41658C11.5691 5.30547 11.6211 5.16297 11.6138 4.98909C11.6072 4.81575 11.5483 4.67353 11.4372 4.56242C11.3122 4.43742 11.1663 4.37492 10.9997 4.37492C10.833 4.37492 10.6872 4.43742 10.5622 4.56242L7.99967 7.12492L5.41634 4.54158C5.30523 4.43047 5.16301 4.37825 4.98967 4.38492C4.81578 4.39214 4.67329 4.45131 4.56217 4.56242C4.43717 4.68742 4.37467 4.83325 4.37467 4.99992C4.37467 5.16658 4.43717 5.31242 4.56217 5.43742L7.12467 7.99992L4.54134 10.5833C4.43023 10.6944 4.37829 10.8366 4.38551 11.0099C4.39217 11.1838 4.45106 11.3263 4.56217 11.4374ZM7.99967 15.9166C6.90245 15.9166 5.87134 15.7083 4.90634 15.2916C3.94079 14.8749 3.10384 14.3124 2.39551 13.6041C1.68717 12.8958 1.12467 12.0588 0.708008 11.0933C0.291341 10.1283 0.0830078 9.09714 0.0830078 7.99992C0.0830078 6.9027 0.291341 5.87131 0.708008 4.90575C1.12467 3.94075 1.68717 3.10409 2.39551 2.39575C3.10384 1.68742 3.94079 1.12492 4.90634 0.708252C5.87134 0.291585 6.90245 0.083252 7.99967 0.083252C9.0969 0.083252 10.1283 0.291585 11.0938 0.708252C12.0588 1.12492 12.8955 1.68742 13.6038 2.39575C14.3122 3.10409 14.8747 3.94075 15.2913 4.90575C15.708 5.87131 15.9163 6.9027 15.9163 7.99992C15.9163 9.09714 15.708 10.1283 15.2913 11.0933C14.8747 12.0588 14.3122 12.8958 13.6038 13.6041C12.8955 14.3124 12.0588 14.8749 11.0938 15.2916C10.1283 15.7083 9.0969 15.9166 7.99967 15.9166ZM7.99967 14.6666C9.8469 14.6666 11.42 14.0174 12.7188 12.7191C14.0172 11.4202 14.6663 9.84714 14.6663 7.99992C14.6663 6.1527 14.0172 4.57964 12.7188 3.28075C11.42 1.98242 9.8469 1.33325 7.99967 1.33325C6.15245 1.33325 4.57967 1.98242 3.28134 3.28075C1.98245 4.57964 1.33301 6.1527 1.33301 7.99992C1.33301 9.84714 1.98245 11.4202 3.28134 12.7191C4.57967 14.0174 6.15245 14.6666 7.99967 14.6666Z" fill="#1DA687"/>
</svg>
