<svg width="20" height="20" viewBox="0 0 20 20" fill="none" xmlns="http://www.w3.org/2000/svg">
<mask id="mask0_1844_80459" style="mask-type:alpha" maskUnits="userSpaceOnUse" x="0" y="0" width="20" height="20">
<rect width="20" height="20" fill="#D9D9D9"/>
</mask>
<g mask="url(#mask0_1844_80459)">
<path d="M10.0002 10.8749L5.771 15.1041C5.65989 15.2152 5.51766 15.2741 5.34433 15.2808C5.17044 15.288 5.021 15.2291 4.896 15.1041C4.771 14.9791 4.7085 14.8333 4.7085 14.6666C4.7085 14.4999 4.771 14.3541 4.896 14.2291L9.12516 9.99992L4.896 5.77075C4.78488 5.65964 4.726 5.51714 4.71933 5.34325C4.71211 5.16992 4.771 5.02075 4.896 4.89575C5.021 4.77075 5.16683 4.70825 5.3335 4.70825C5.50016 4.70825 5.646 4.77075 5.771 4.89575L10.0002 9.12492L14.2293 4.89575C14.3404 4.78464 14.4829 4.72547 14.6568 4.71825C14.8302 4.71159 14.9793 4.77075 15.1043 4.89575C15.2293 5.02075 15.2918 5.16659 15.2918 5.33325C15.2918 5.49992 15.2293 5.64575 15.1043 5.77075L10.8752 9.99992L15.1043 14.2291C15.2154 14.3402 15.2743 14.4824 15.281 14.6558C15.2882 14.8296 15.2293 14.9791 15.1043 15.1041C14.9793 15.2291 14.8335 15.2916 14.6668 15.2916C14.5002 15.2916 14.3543 15.2291 14.2293 15.1041L10.0002 10.8749Z" fill="#333333"/>
</g>
</svg>
