<svg width="21" height="21" viewBox="0 0 21 21" fill="none" xmlns="http://www.w3.org/2000/svg">
<path d="M16.3332 11.5586C16.7474 11.5586 17.0832 11.2228 17.0832 10.8086C17.0832 10.3944 16.7474 10.0586 16.3332 10.0586V11.5586ZM4.13617 10.2783C3.84328 10.5712 3.84328 11.046 4.13617 11.3389L8.90914 16.1119C9.20204 16.4048 9.67691 16.4048 9.9698 16.1119C10.2627 15.819 10.2627 15.3441 9.9698 15.0512L5.72716 10.8086L9.9698 6.56595C10.2627 6.27306 10.2627 5.79819 9.9698 5.50529C9.67691 5.2124 9.20204 5.2124 8.90914 5.50529L4.13617 10.2783ZM16.3332 10.0586H4.6665V11.5586H16.3332V10.0586Z" fill="#366EE3"/>
</svg>
