<svg width="20" height="20" viewBox="0 0 20 20" fill="none" xmlns="http://www.w3.org/2000/svg">
<path fill-rule="evenodd" clip-rule="evenodd" d="M9.99996 2.29102C8.50419 2.29102 7.29163 3.50358 7.29163 4.99935C7.29163 6.49512 8.50419 7.70768 9.99996 7.70768C11.4957 7.70768 12.7083 6.49512 12.7083 4.99935C12.7083 3.50358 11.4957 2.29102 9.99996 2.29102ZM6.04163 4.99935C6.04163 2.81322 7.81383 1.04102 9.99996 1.04102C12.1861 1.04102 13.9583 2.81322 13.9583 4.99935C13.9583 7.18548 12.1861 8.95768 9.99996 8.95768C7.81383 8.95768 6.04163 7.18548 6.04163 4.99935Z" fill="#969696"/>
<path fill-rule="evenodd" clip-rule="evenodd" d="M1.875 18.334C1.875 13.8467 5.5127 10.209 10 10.209C14.4873 10.209 18.125 13.8467 18.125 18.334C18.125 18.6792 17.8452 18.959 17.5 18.959C17.1548 18.959 16.875 18.6792 16.875 18.334C16.875 14.537 13.7969 11.459 10 11.459C6.20305 11.459 3.125 14.537 3.125 18.334C3.125 18.6792 2.84518 18.959 2.5 18.959C2.15482 18.959 1.875 18.6792 1.875 18.334Z" fill="#969696"/>
</svg>
