<svg width="20" height="20" viewBox="0 0 20 20" fill="none" xmlns="http://www.w3.org/2000/svg">
<path d="M8.33333 2.5H2.5V7.08333H8.33333V2.5Z" fill="#366EE3"/>
<path fill-rule="evenodd" clip-rule="evenodd" d="M1.875 2.5C1.875 2.15482 2.15482 1.875 2.5 1.875H8.33333C8.67851 1.875 8.95833 2.15482 8.95833 2.5V7.08333C8.95833 7.42851 8.67851 7.70833 8.33333 7.70833H2.5C2.15482 7.70833 1.875 7.42851 1.875 7.08333V2.5ZM3.125 3.125V6.45833H7.70833V3.125H3.125Z" fill="#366EE3"/>
<path d="M17.5 12.916H11.6667V17.4993H17.5V12.916Z" fill="#366EE3"/>
<path fill-rule="evenodd" clip-rule="evenodd" d="M11.0417 12.916C11.0417 12.5708 11.3215 12.291 11.6667 12.291H17.5C17.8452 12.291 18.125 12.5708 18.125 12.916V17.4993C18.125 17.8445 17.8452 18.1243 17.5 18.1243H11.6667C11.3215 18.1243 11.0417 17.8445 11.0417 17.4993V12.916ZM12.2917 13.541V16.8743H16.875V13.541H12.2917Z" fill="#366EE3"/>
<path d="M17.5 2.5H11.6667V9.58333H17.5V2.5Z" fill="#366EE3"/>
<path fill-rule="evenodd" clip-rule="evenodd" d="M11.0417 2.5C11.0417 2.15482 11.3215 1.875 11.6667 1.875H17.5C17.8452 1.875 18.125 2.15482 18.125 2.5V9.58333C18.125 9.92851 17.8452 10.2083 17.5 10.2083H11.6667C11.3215 10.2083 11.0417 9.92851 11.0417 9.58333V2.5ZM12.2917 3.125V8.95833H16.875V3.125H12.2917Z" fill="#366EE3"/>
<path d="M8.33333 10.416H2.5V17.4993H8.33333V10.416Z" fill="#366EE3"/>
<path fill-rule="evenodd" clip-rule="evenodd" d="M1.875 10.416C1.875 10.0708 2.15482 9.79102 2.5 9.79102H8.33333C8.67851 9.79102 8.95833 10.0708 8.95833 10.416V17.4993C8.95833 17.8445 8.67851 18.1243 8.33333 18.1243H2.5C2.15482 18.1243 1.875 17.8445 1.875 17.4993V10.416ZM3.125 11.041V16.8743H7.70833V11.041H3.125Z" fill="#366EE3"/>
</svg>
