<svg width="20" height="20" viewBox="0 0 20 20" fill="none" xmlns="http://www.w3.org/2000/svg">
<path d="M9.58329 17.5H3.74996C3.28972 17.5 2.91663 17.1269 2.91663 16.6667V3.33333C2.91663 2.8731 3.28972 2.5 3.74996 2.5H15.4166C15.8769 2.5 16.25 2.8731 16.25 3.33333V8.125" stroke="#969696" stroke-width="1.5" stroke-linecap="round" stroke-linejoin="round"/>
<path d="M15.2651 11.25C16.2693 11.25 17.0833 12.0335 17.0833 13C17.0833 14.2582 15.8712 15.3333 15.2651 15.9167C14.8611 16.3055 14.356 16.6945 13.75 17.0833C13.1439 16.6945 12.6388 16.3055 12.2348 15.9167C11.6288 15.3333 10.4166 14.2582 10.4166 13C10.4166 12.0335 11.2307 11.25 12.2348 11.25C12.8672 11.25 13.4242 11.5608 13.75 12.0323C14.0757 11.5608 14.6327 11.25 15.2651 11.25Z" stroke="#969696" stroke-width="1.5" stroke-linejoin="round"/>
<path d="M6.25 5.83398H12.9167" stroke="#969696" stroke-width="1.5" stroke-linecap="round"/>
</svg>
