<svg width="20" height="20" viewBox="0 0 20 20" fill="none" xmlns="http://www.w3.org/2000/svg">
<path fill-rule="evenodd" clip-rule="evenodd" d="M1.45837 7.91602C1.45837 7.57084 1.7382 7.29102 2.08337 7.29102H17.9167C18.2619 7.29102 18.5417 7.57084 18.5417 7.91602V16.666C18.5417 17.4714 17.8888 18.1243 17.0834 18.1243H2.91671C2.1113 18.1243 1.45837 17.4715 1.45837 16.666V7.91602ZM2.70837 8.54102V16.666C2.70837 16.7811 2.80164 16.8743 2.91671 16.8743H17.0834C17.1984 16.8743 17.2917 16.7811 17.2917 16.666V8.54102H2.70837Z" fill="#969696"/>
<path fill-rule="evenodd" clip-rule="evenodd" d="M2.91671 3.54102C2.80165 3.54102 2.70837 3.63429 2.70837 3.74935V7.29102H17.2917V3.74935C17.2917 3.63428 17.1984 3.54102 17.0834 3.54102H2.91671ZM1.45837 3.74935C1.45837 2.94393 2.11129 2.29102 2.91671 2.29102H17.0834C17.8888 2.29102 18.5417 2.94394 18.5417 3.74935V7.91602C18.5417 8.26119 18.2619 8.54102 17.9167 8.54102H2.08337C1.7382 8.54102 1.45837 8.26119 1.45837 7.91602V3.74935Z" fill="#969696"/>
<path fill-rule="evenodd" clip-rule="evenodd" d="M6.66663 1.04102C7.0118 1.04102 7.29163 1.32084 7.29163 1.66602V4.99935C7.29163 5.34453 7.0118 5.62435 6.66663 5.62435C6.32145 5.62435 6.04163 5.34453 6.04163 4.99935V1.66602C6.04163 1.32084 6.32145 1.04102 6.66663 1.04102Z" fill="#969696"/>
<path fill-rule="evenodd" clip-rule="evenodd" d="M13.3334 1.04102C13.6786 1.04102 13.9584 1.32084 13.9584 1.66602V4.99935C13.9584 5.34453 13.6786 5.62435 13.3334 5.62435C12.9882 5.62435 12.7084 5.34453 12.7084 4.99935V1.66602C12.7084 1.32084 12.9882 1.04102 13.3334 1.04102Z" fill="#969696"/>
<path fill-rule="evenodd" clip-rule="evenodd" d="M11.0416 14.166C11.0416 13.8208 11.3214 13.541 11.6666 13.541H14.1666C14.5118 13.541 14.7916 13.8208 14.7916 14.166C14.7916 14.5112 14.5118 14.791 14.1666 14.791H11.6666C11.3214 14.791 11.0416 14.5112 11.0416 14.166Z" fill="#969696"/>
<path fill-rule="evenodd" clip-rule="evenodd" d="M5.20837 14.166C5.20837 13.8208 5.4882 13.541 5.83337 13.541H8.33337C8.67855 13.541 8.95837 13.8208 8.95837 14.166C8.95837 14.5112 8.67855 14.791 8.33337 14.791H5.83337C5.4882 14.791 5.20837 14.5112 5.20837 14.166Z" fill="#969696"/>
<path fill-rule="evenodd" clip-rule="evenodd" d="M11.0416 10.834C11.0416 10.4888 11.3214 10.209 11.6666 10.209H14.1666C14.5118 10.209 14.7916 10.4888 14.7916 10.834C14.7916 11.1792 14.5118 11.459 14.1666 11.459H11.6666C11.3214 11.459 11.0416 11.1792 11.0416 10.834Z" fill="#969696"/>
<path fill-rule="evenodd" clip-rule="evenodd" d="M5.20837 10.834C5.20837 10.4888 5.4882 10.209 5.83337 10.209H8.33337C8.67855 10.209 8.95837 10.4888 8.95837 10.834C8.95837 11.1792 8.67855 11.459 8.33337 11.459H5.83337C5.4882 11.459 5.20837 11.1792 5.20837 10.834Z" fill="#969696"/>
</svg>
