<svg width="20" height="20" viewBox="0 0 20 20" fill="none" xmlns="http://www.w3.org/2000/svg">
<mask id="mask0_3726_12297" style="mask-type:alpha" maskUnits="userSpaceOnUse" x="0" y="0" width="20" height="20">
<rect width="20" height="20" fill="#D9D9D9"/>
</mask>
<g mask="url(#mask0_3726_12297)">
<path d="M15.8545 16.7083L11.042 11.9167C10.6253 12.2639 10.1461 12.5347 9.60445 12.7292C9.06278 12.9236 8.50723 13.0208 7.93778 13.0208C6.50723 13.0208 5.2989 12.5278 4.31278 11.5417C3.32667 10.5556 2.83362 9.34722 2.83362 7.91667C2.83362 6.5 3.32667 5.295 4.31278 4.30167C5.2989 3.30889 6.50723 2.8125 7.93778 2.8125C9.35445 2.8125 10.5558 3.30556 11.542 4.29167C12.5281 5.27778 13.0211 6.48611 13.0211 7.91667C13.0211 8.51389 12.9239 9.08333 12.7295 9.625C12.535 10.1667 12.2711 10.6389 11.9378 11.0417L16.7503 15.8542C16.8614 15.9653 16.917 16.1042 16.917 16.2708C16.917 16.4375 16.8545 16.5833 16.7295 16.7083C16.6045 16.8333 16.4553 16.8958 16.282 16.8958C16.1081 16.8958 15.9656 16.8333 15.8545 16.7083ZM7.93778 11.7708C9.00723 11.7708 9.91362 11.3958 10.657 10.6458C11.3997 9.89583 11.7711 8.98611 11.7711 7.91667C11.7711 6.84722 11.3997 5.9375 10.657 5.1875C9.91362 4.4375 9.00723 4.0625 7.93778 4.0625C6.85445 4.0625 5.9414 4.4375 5.19862 5.1875C4.45528 5.9375 4.08362 6.84722 4.08362 7.91667C4.08362 8.98611 4.45528 9.89583 5.19862 10.6458C5.9414 11.3958 6.85445 11.7708 7.93778 11.7708Z" fill="#969696"/>
</g>
</svg>
