<svg width="20" height="20" viewBox="0 0 20 20" fill="none" xmlns="http://www.w3.org/2000/svg">
<mask id="mask0_3726_12309" style="mask-type:alpha" maskUnits="userSpaceOnUse" x="0" y="0" width="20" height="20">
<rect width="20" height="20" fill="#D9D9D9"/>
</mask>
<g mask="url(#mask0_3726_12309)">
<path d="M11.25 17.9173H8.7292C8.54864 17.9173 8.38892 17.8548 8.25003 17.7298C8.11114 17.6048 8.02781 17.4451 8.00003 17.2507L7.75003 15.3757C7.52781 15.3062 7.30225 15.202 7.07337 15.0632C6.84392 14.9243 6.63198 14.7784 6.43753 14.6257L4.70837 15.3757C4.52781 15.4451 4.35087 15.452 4.17753 15.3965C4.00364 15.3409 3.86114 15.2298 3.75003 15.0632L2.50003 12.8757C2.40281 12.709 2.37503 12.5318 2.4167 12.344C2.45837 12.1568 2.54864 12.0076 2.68753 11.8965L4.20837 10.7507C4.18059 10.6257 4.16337 10.5007 4.1567 10.3757C4.14948 10.2507 4.14587 10.1257 4.14587 10.0007C4.14587 9.88954 4.14948 9.77148 4.1567 9.64648C4.16337 9.52148 4.18059 9.38954 4.20837 9.25065L2.68753 8.10482C2.54864 7.99371 2.45837 7.84454 2.4167 7.65732C2.37503 7.46954 2.40281 7.29232 2.50003 7.12565L3.75003 4.95898C3.84725 4.79232 3.98614 4.68121 4.1667 4.62565C4.34725 4.5701 4.52087 4.57704 4.68753 4.64648L6.43753 5.37565C6.63198 5.22287 6.84392 5.08065 7.07337 4.94898C7.30225 4.81676 7.52781 4.70898 7.75003 4.62565L8.00003 2.75065C8.02781 2.55621 8.11114 2.39648 8.25003 2.27148C8.38892 2.14648 8.54864 2.08398 8.7292 2.08398H11.25C11.4445 2.08398 11.6111 2.14648 11.75 2.27148C11.8889 2.39648 11.9723 2.55621 12 2.75065L12.25 4.62565C12.5 4.72287 12.7256 4.83037 12.9267 4.94815C13.1284 5.06648 13.3334 5.20898 13.5417 5.37565L15.3125 4.64648C15.4792 4.57704 15.6495 4.5701 15.8234 4.62565C15.9967 4.68121 16.1389 4.79232 16.25 4.95898L17.5 7.12565C17.5973 7.29232 17.625 7.46954 17.5834 7.65732C17.5417 7.84454 17.4514 7.99371 17.3125 8.10482L15.7709 9.27148C15.7986 9.41037 15.8125 9.53537 15.8125 9.64648V10.0007C15.8125 10.1118 15.8089 10.2262 15.8017 10.344C15.795 10.4623 15.7778 10.5979 15.75 10.7507L17.2709 11.8965C17.4236 12.0076 17.5209 12.1568 17.5625 12.344C17.6042 12.5318 17.5695 12.709 17.4584 12.8757L16.2084 15.0423C16.1111 15.209 15.9723 15.3201 15.7917 15.3757C15.6111 15.4312 15.4306 15.4243 15.25 15.3548L13.5417 14.6257C13.3334 14.7923 13.1217 14.9382 12.9067 15.0632C12.6911 15.1882 12.4723 15.2923 12.25 15.3757L12 17.2507C11.9723 17.4451 11.8889 17.6048 11.75 17.7298C11.6111 17.8548 11.4445 17.9173 11.25 17.9173ZM10 12.5007C10.6945 12.5007 11.2848 12.2576 11.7709 11.7715C12.257 11.2854 12.5 10.6951 12.5 10.0007C12.5 9.30621 12.257 8.71593 11.7709 8.22982C11.2848 7.74371 10.6945 7.50065 10 7.50065C9.30559 7.50065 8.71531 7.74371 8.2292 8.22982C7.74309 8.71593 7.50003 9.30621 7.50003 10.0007C7.50003 10.6951 7.74309 11.2854 8.2292 11.7715C8.71531 12.2576 9.30559 12.5007 10 12.5007ZM10 11.2507C9.65281 11.2507 9.35781 11.129 9.11503 10.8857C8.8717 10.6429 8.75003 10.3479 8.75003 10.0007C8.75003 9.65343 8.8717 9.35843 9.11503 9.11565C9.35781 8.87232 9.65281 8.75065 10 8.75065C10.3473 8.75065 10.6423 8.87232 10.885 9.11565C11.1284 9.35843 11.25 9.65343 11.25 10.0007C11.25 10.3479 11.1284 10.6429 10.885 10.8857C10.6423 11.129 10.3473 11.2507 10 11.2507ZM9.1667 16.6673H10.8125L11.1042 14.4382C11.5348 14.327 11.9236 14.1673 12.2709 13.959C12.6181 13.7507 12.9584 13.4868 13.2917 13.1673L15.3542 14.0423L16.1875 12.6257L14.375 11.2715C14.4445 11.0493 14.4898 10.834 14.5109 10.6257C14.5314 10.4173 14.5417 10.209 14.5417 10.0007C14.5417 9.77843 14.5314 9.56676 14.5109 9.36565C14.4898 9.16398 14.4445 8.95898 14.375 8.75065L16.1875 7.37565L15.375 5.95898L13.2709 6.83398C12.9931 6.54232 12.6598 6.28176 12.2709 6.05232C11.882 5.82343 11.4931 5.66037 11.1042 5.56315L10.8334 3.33398H9.18753L8.89587 5.56315C8.4792 5.66037 8.09031 5.81315 7.7292 6.02148C7.36809 6.22982 7.02087 6.49371 6.68753 6.81315L4.62503 5.95898L3.81253 7.37565L5.6042 8.70898C5.53475 8.91732 5.48614 9.12565 5.45837 9.33398C5.43059 9.54232 5.4167 9.76454 5.4167 10.0007C5.4167 10.2229 5.43059 10.4382 5.45837 10.6465C5.48614 10.8548 5.53475 11.0632 5.6042 11.2715L3.81253 12.6257L4.62503 14.0423L6.68753 13.1673C7.00698 13.4868 7.34725 13.7507 7.70837 13.959C8.06948 14.1673 8.46531 14.327 8.89587 14.4382L9.1667 16.6673Z" fill="#969696"/>
</g>
</svg>
